<?xml version="1.0" encoding="UTF-8"?>
<!DOCTYPE svg PUBLIC "-//W3C//DTD SVG 1.1//EN" "http://www.w3.org/Graphics/SVG/1.1/DTD/svg11.dtd">
<!-- Creator: CorelDRAW 2020 (64 Bit Versão de avaliação) -->
<svg xmlns="http://www.w3.org/2000/svg" xml:space="preserve" width="63.9862mm" height="23.9619mm" version="1.1" style="shape-rendering:geometricPrecision; text-rendering:geometricPrecision; image-rendering:optimizeQuality; fill-rule:evenodd; clip-rule:evenodd"
viewBox="0 0 8.2766 3.0995"
 xmlns:xlink="http://www.w3.org/1999/xlink"
 xmlns:xodm="http://www.corel.com/coreldraw/odm/2003">
 <defs>
  <style type="text/css">
   <![CDATA[
    .fil0 {fill:#FDB92E;fill-rule:nonzero}
   ]]>
  </style>
 </defs>
 <g id="Camada_x0020_1">
  <metadata id="CorelCorpID_0Corel-Layer"/>
  <g id="_2206392552976">
   <path class="fil0" d="M5.5956 2.0153c0,-0.0757 -0.0146,-0.148 -0.044,-0.2173 -0.0295,-0.0692 -0.0698,-0.1296 -0.1213,-0.181 -0.0515,-0.0514 -0.1111,-0.0928 -0.1794,-0.1243 -0.0682,-0.0314 -0.14,-0.0471 -0.2156,-0.0471 -0.0756,0 -0.1474,0.0157 -0.2157,0.0471 -0.0682,0.0315 -0.128,0.0729 -0.1795,0.1243 -0.0514,0.0515 -0.0928,0.1119 -0.1244,0.181 -0.0314,0.0694 -0.0472,0.1417 -0.0472,0.2173l0 1.0798 -0.5099 0 0 -1.0798c0,-0.0757 -0.0158,-0.148 -0.0472,-0.2173 -0.0315,-0.0692 -0.0729,-0.1296 -0.1244,-0.181 -0.0515,-0.0514 -0.1111,-0.0928 -0.1794,-0.1243 -0.0682,-0.0314 -0.14,-0.0471 -0.2156,-0.0471 -0.0756,0 -0.1469,0.0157 -0.2142,0.0471 -0.067,0.0315 -0.1262,0.0729 -0.1777,0.1243 -0.0515,0.0515 -0.0918,0.1119 -0.1213,0.181 -0.0294,0.0694 -0.044,0.1417 -0.044,0.2173l0 1.0798 -0.5227 0 0 -1.0798c0,-0.1533 0.0279,-0.2981 0.0835,-0.4345 0.0557,-0.1365 0.1323,-0.2555 0.2298,-0.3574 0.0976,-0.1017 0.2119,-0.1825 0.3431,-0.2425 0.1311,-0.0597 0.2724,-0.0897 0.4234,-0.0897 0.1741,0 0.328,0.0368 0.4613,0.1103 0.1332,0.0735 0.2534,0.1657 0.3604,0.2769 0.0524,-0.0545 0.1107,-0.1053 0.1747,-0.1526 0.0641,-0.0472 0.1317,-0.0882 0.203,-0.1228 0.0713,-0.0346 0.1443,-0.0619 0.2187,-0.0818 0.0746,-0.02 0.1496,-0.03 0.2252,-0.03 0.1511,0 0.2948,0.03 0.4312,0.0897 0.1364,0.0599 0.256,0.1407 0.3589,0.2425 0.1029,0.1018 0.1846,0.2209 0.2456,0.3574 0.0608,0.1363 0.0913,0.2812 0.0913,0.4345l0 1.0798 -0.5667 0 0 -1.0798z"/>
   <path class="fil0" d="M1.1176 0.8957c0.1532,0 0.2959,0.03 0.4282,0.0898 0.1322,0.0598 0.2471,0.1406 0.3447,0.2425 0.0976,0.1017 0.1742,0.2208 0.2298,0.3573 0.0556,0.1364 0.0834,0.2812 0.0834,0.4345 0,0.151 -0.0277,0.2928 -0.0834,0.4251 -0.0556,0.1321 -0.1323,0.2465 -0.2298,0.343 -0.0976,0.0965 -0.2125,0.1727 -0.3447,0.2282 -0.1323,0.0556 -0.275,0.0835 -0.4282,0.0835 -0.149,0 -0.2912,-0.0279 -0.4265,-0.0835 -0.1355,-0.0556 -0.2541,-0.1317 -0.3559,-0.2282 -0.1017,-0.0965 -0.183,-0.211 -0.2439,-0.343 -0.0608,-0.1323 -0.0914,-0.274 -0.0914,-0.4251l0 -2.0194 0.3491 0c0.1303,-0.0032 0.1995,0.0397 0.2083,0.185l0 0.8805c0.0859,-0.0419 0.1746,-0.0808 0.266,-0.1164 0.0913,-0.0357 0.1893,-0.0536 0.2943,-0.0536zm0 0.5604c-0.0734,0 -0.1438,0.0147 -0.2109,0.0441 -0.0672,0.0294 -0.1269,0.0698 -0.1795,0.1211 -0.0523,0.0516 -0.0939,0.1113 -0.1243,0.1796 -0.0304,0.0682 -0.0455,0.1411 -0.0455,0.2188 0,0.0755 0.0151,0.1469 0.0455,0.214 0.0304,0.0672 0.072,0.126 0.1243,0.1763 0.0526,0.0504 0.1124,0.0907 0.1795,0.1213 0.0671,0.0303 0.1374,0.0455 0.2109,0.0455 0.0756,0 0.1485,-0.0153 0.2188,-0.0455 0.0703,-0.0306 0.1317,-0.0708 0.1842,-0.1213 0.0524,-0.0503 0.0945,-0.1091 0.1259,-0.1763 0.0315,-0.0671 0.0473,-0.1385 0.0473,-0.214 0,-0.0777 -0.0158,-0.1506 -0.0473,-0.2188 -0.0314,-0.0682 -0.0734,-0.128 -0.1259,-0.1796 -0.0524,-0.0513 -0.1139,-0.0917 -0.1842,-0.1211 -0.0703,-0.0294 -0.1432,-0.0441 -0.2188,-0.0441z"/>
   <path class="fil0" d="M8.2766 0.8951l-0.839 1.9741c-0.0778,0.1481 -0.1947,0.2221 -0.3504,0.2221 -0.1558,0 -0.2726,-0.0741 -0.3505,-0.2221l-0.8387 -1.9729 0.5667 -0.0005 0.6226 1.6055 0.6228 -1.6061 0.5667 0z"/>
  </g>
 </g>
</svg>
